<svg
	xmlns="http://www.w3.org/2000/svg" width="18" height="18" class="add-icon" viewBox="0 0 18 18">
	<defs>
		<style>
      .add-icon .a, .add-icon .b{
          fill:#fff;
      }
      .add-icon .a{
          stroke:#707070;
          opacity:0;
      }
      .add-icon .b{
          stroke:#fff;
          stroke-width:0.5px;
      }
      .add-icon .c{
          stroke:none;
      }
      .add-icon .d{
          fill:none;
      }
    </style>
	</defs>
	<g class="a" transform="translate(18 0) rotate(90)">
		<rect class="c" width="18" height="18"/>
		<rect class="d" x="0.5" y="0.5" width="17" height="17"/>
	</g>
	<g transform="translate(9.211 1) rotate(45)">
		<path class="b" d="M6.446,5.806,11.477.775a.454.454,0,1,0-.641-.641L5.8,5.165.774.134A.454.454,0,0,0,.133.775L5.164,5.806.133,10.837a.454.454,0,0,0,.641.641L5.8,6.447l5.031,5.031a.454.454,0,1,0,.641-.641Z" transform="translate(0 -0.001)"/>
	</g>
</svg>
