<svg id="arrow-up-icon" xmlns="http://www.w3.org/2000/svg" width="14" height="14" viewBox="0 0 14 14">
  <path id="arrow-up-icon-2" data-name="arrow-up-icon" d="M.2.254h0a.735.735,0,0,0,0,1.017L5.972,7.216a1.365,1.365,0,0,0,1.973,0l5.811-5.989a.735.735,0,0,0,.007-1.01A.684.684,0,0,0,12.77.21L7.453,5.691a.683.683,0,0,1-.987,0L1.19.254A.682.682,0,0,0,.2.254" transform="translate(14 10.639) rotate(180)" fill="#41485a"/>
  <g id="Rectangle_3420" data-name="Rectangle 3420" fill="#fff" stroke="#707070" stroke-width="1" opacity="0">
    <rect width="14" height="14" stroke="none"/>
    <rect x="0.5" y="0.5" width="13" height="13" fill="none"/>
  </g>
</svg>
