<svg id="attachment-icon" xmlns="http://www.w3.org/2000/svg" width="13.938" height="13.936" viewBox="0 0 13.938 13.936">
  <path id="Shape" d="M12.792,3.159a3.908,3.908,0,0,0-2.758-1.131h-.011a3.936,3.936,0,0,0-1.456.278,3.853,3.853,0,0,0-1.289.842l-3.639,3.6A2.2,2.2,0,0,0,3.647,9.87a2.236,2.236,0,0,0,1.578.648h0A2.225,2.225,0,0,0,6.8,9.878L10,6.722a.547.547,0,0,0,0-.781A.553.553,0,0,0,9.6,5.78a.559.559,0,0,0-.394.161L6.014,9.1a1.107,1.107,0,0,1-.786.319h0a1.128,1.128,0,0,1-.794-.325A1.1,1.1,0,0,1,4.1,8.306a1.075,1.075,0,0,1,.322-.778l3.639-3.6a2.764,2.764,0,0,1,1.959-.8h.008a2.805,2.805,0,0,1,1.975.808,2.736,2.736,0,0,1,.817,1.95,2.7,2.7,0,0,1-.8,1.942l-3.861,3.82a4.111,4.111,0,0,1-2.9,1.178H5.245a4.145,4.145,0,0,1-2.92-1.2A4.037,4.037,0,0,1,1.116,8.748,4,4,0,0,1,2.309,5.872L7.294.944a.547.547,0,0,0,0-.781.562.562,0,0,0-.789,0L1.52,5.091a5.155,5.155,0,0,0,.017,7.325A5.224,5.224,0,0,0,3.27,13.553a5.324,5.324,0,0,0,1.972.383h.014a5.249,5.249,0,0,0,1.958-.373,5.134,5.134,0,0,0,1.73-1.13L12.8,8.614a3.783,3.783,0,0,0,.852-1.275,3.842,3.842,0,0,0-.864-4.18Z" transform="translate(0)" fill="#41485a"/>
</svg>
