<?xml version="1.0" encoding="UTF-8"?>
<svg xmlns="http://www.w3.org/2000/svg" xmlns:xlink="http://www.w3.org/1999/xlink" width="9pt" height="9pt" viewBox="0 0 9 9" version="1.1">
<defs>
<filter id="alpha" filterUnits="objectBoundingBox" x="0%" y="0%" width="100%" height="100%">
  <feColorMatrix type="matrix" in="SourceGraphic" values="0 0 0 0 1 0 0 0 0 1 0 0 0 0 1 0 0 0 1 0"/>
</filter>
<mask id="mask0">
  <g filter="url(#alpha)">
<rect x="0" y="0" width="9" height="9" style="fill:rgb(0%,0%,0%);fill-opacity:1.0;stroke:none;"/>
  </g>
</mask>
<clipPath id="clip1">
  <rect width="9" height="9"/>
</clipPath>
<g id="surface7" clip-path="url(#clip1)">
<path style=" stroke:none;fill-rule:nonzero;fill:rgb(97.45098%,90.980392%,95.294118%);fill-opacity:1;" d="M 4.667969 4.253906 L 7.921875 1 C 7.996094 0.925781 8.027344 0.816406 8 0.714844 C 7.976562 0.609375 7.894531 0.53125 7.792969 0.503906 C 7.6875 0.476562 7.582031 0.507812 7.507812 0.585938 L 4.253906 3.839844 L 1 0.585938 C 0.882812 0.488281 0.710938 0.492188 0.601562 0.601562 C 0.492188 0.710938 0.488281 0.882812 0.585938 1 L 3.839844 4.253906 L 0.585938 7.507812 C 0.472656 7.621094 0.476562 7.804688 0.589844 7.917969 C 0.703125 8.03125 0.886719 8.03125 1 7.921875 L 4.253906 4.667969 L 7.507812 7.921875 C 7.582031 8 7.691406 8.027344 7.792969 8.003906 C 7.894531 7.976562 7.976562 7.894531 8.003906 7.792969 C 8.027344 7.691406 8 7.582031 7.921875 7.507812 Z M 4.667969 4.253906 "/>
</g>
</defs>
<g id="surface1">
<use xlink:href="#surface7" mask="url(#mask0)"/>
</g>
</svg>
