<svg width="18" height="18" viewBox="0 0 18 18" fill="none" xmlns="http://www.w3.org/2000/svg">
<path d="M2.13772 16.8877L9.00001 10.0254L15.8623 16.8877C16.0039 17.0292 16.1896 17.1 16.375 17.1C16.5604 17.1 16.7461 17.0292 16.8877 16.8877L16.8877 16.8877C17.1708 16.6045 17.1708 16.1455 16.8877 15.8623L10.0254 9.00004L16.8877 2.13769C17.1708 1.85454 17.1708 1.39547 16.8877 1.11236C16.6045 0.829255 16.1455 0.829204 15.8624 1.11236L9.00001 7.97471L2.13769 1.11236C1.85454 0.829216 1.39547 0.829209 1.11236 1.11236C0.829256 1.3955 0.829204 1.85456 1.11236 2.13769C1.11236 2.13769 1.11236 2.13769 1.11236 2.13769L7.97468 9L1.11236 15.8624C0.829217 16.1455 0.829209 16.6046 1.11236 16.8877C1.25391 17.0292 1.43965 17.1 1.62504 17.1C1.81044 17.1 1.99614 17.0292 2.13771 16.8877L2.13772 16.8877Z" fill="#ACB5C0" stroke="#ACB5C0" stroke-width="0.2"/>
</svg>
