<svg xmlns="http://www.w3.org/2000/svg" width="12.846" height="12.846" viewBox="0 0 12.846 12.846"><defs><style>.export{fill:#fff;stroke:#fff;stroke-width:0.3px;}</style></defs><g transform="translate(0.15 0.15)"><path class="export" d="M240.392,8.887A.392.392,0,0,1,240,8.495V.392a.392.392,0,1,1,.784,0v8.1A.392.392,0,0,1,240.392,8.887Zm0,0" transform="translate(-234.119)"/><path class="export" d="M157.155,248.192a.389.389,0,0,1-.277-.115l-2.091-2.091a.392.392,0,0,1,.555-.555l1.814,1.814,1.814-1.814a.392.392,0,0,1,.555.555l-2.091,2.091a.393.393,0,0,1-.278.115Zm0,0" transform="translate(-150.882 -239.305)"/><path class="export" d="M11.108,345.514H1.438A1.439,1.439,0,0,1,0,344.076v-2.352a.392.392,0,0,1,.784,0v2.352a.654.654,0,0,0,.653.653h9.671a.654.654,0,0,0,.653-.653v-2.352a.392.392,0,0,1,.784,0v2.352A1.439,1.439,0,0,1,11.108,345.514Zm0,0" transform="translate(0 -332.968)"/></g></svg>