<svg xmlns="http://www.w3.org/2000/svg" width="9.41" height="13.604" viewBox="0 0 9.41 13.604">
  <g id="green-arrow" transform="translate(0.233 0.2)">
    <g id="Group_11" data-name="Group 11" transform="translate(0 0)">
      <g id="Group_8" data-name="Group 8" transform="translate(0 0)">
        <g id="Group_7" data-name="Group 7">
          <path id="Path_1" data-name="Path 1" d="M92.536,60.015l3.45-3.859c.164-.186.328-.366.491-.551h-.77l3.45,3.859c.164.186.328.366.491.551.469.524,1.239-.251.77-.77l-3.45-3.859c-.164-.186-.328-.366-.491-.551a.544.544,0,0,0-.77,0l-3.45,3.859c-.164.186-.328.366-.491.551-.469.519.3,1.294.77.77Z" transform="translate(-91.62 -54.675)" fill="#44dec5" stroke="#44dec5" stroke-width="0.4"/>
        </g>
      </g>
      <g id="Group_10" data-name="Group 10" transform="translate(3.924 0.221)">
        <g id="Group_9" data-name="Group 9">
          <path id="Path_2" data-name="Path 2" d="M163.5,59.1V71.331c0,.5,1.092.5,1.092,0V59.1c0-.5-1.092-.5-1.092,0Z" transform="translate(-163.5 -58.725)" fill="#44dec5" stroke="#44dec5" stroke-width="0.4"/>
        </g>
      </g>
    </g>
  </g>
</svg>
