<svg xmlns="http://www.w3.org/2000/svg" width="19.356" height="19.354" viewBox="0 0 19.356 19.354"><defs><style>.a-calendar-icon{fill:#716dff;stroke:#716dff;stroke-width:0.5px;}</style></defs><g transform="translate(0.25 0.25)"><path class="a-calendar-icon" d="M20.463,4.975H17.1V3.629a.337.337,0,1,0-.673,0v3.03a.337.337,0,1,0,.673,0V5.649h3.367a1.011,1.011,0,0,1,1.01,1.01v3.03H3.965V6.659a1.011,1.011,0,0,1,1.01-1.01H7.669V4.975H4.975A1.686,1.686,0,0,0,3.292,6.659v13.8a1.686,1.686,0,0,0,1.683,1.683H20.464a1.686,1.686,0,0,0,1.683-1.683V6.659A1.686,1.686,0,0,0,20.463,4.975Zm1.01,15.488a1.011,1.011,0,0,1-1.01,1.01H4.975a1.011,1.011,0,0,1-1.01-1.01v-10.1H21.474v10.1Z" transform="translate(-3.292 -3.292)"/><path class="a-calendar-icon" d="M8.294,7a.336.336,0,0,0,.337-.337V5.649h6.734V4.975H8.63V3.629a.337.337,0,1,0-.673,0v3.03A.336.336,0,0,0,8.294,7Z" transform="translate(-2.906 -3.292)"/></g></svg>
