<svg xmlns="http://www.w3.org/2000/svg" width="29.149" height="29.149" viewBox="0 0 29.149 29.149"><defs><style>.label{fill:#d0d5db;}</style></defs><path class="label" d="M18.394,0H10.571a.6.6,0,0,0-.427.177L.649,9.671a2.222,2.222,0,0,0,0,3.138L7.8,19.962a2.2,2.2,0,0,0,1.569.648h0a2.2,2.2,0,0,0,1.569-.648l9.495-9.5a.6.6,0,0,0,.177-.427V2.218A2.222,2.222,0,0,0,18.394,0ZM19.4,9.79l-9.318,9.318a1.016,1.016,0,0,1-1.43,0L1.5,11.955a1.013,1.013,0,0,1,0-1.43l9.318-9.318h7.573A1.012,1.012,0,0,1,19.4,2.218Zm0,0" transform="translate(14.574 0) rotate(45)"/></svg>