<svg xmlns="http://www.w3.org/2000/svg" width="15.302" height="16.076" viewBox="0 0 15.302 16.076"><defs><style>.a-master-data{fill:#fff;}</style></defs><path class="a-master-data" d="M16.156,6.381c-.285,0-6.427.018-7.474,1.4a.367.367,0,0,0-.2.326.645.645,0,0,0,.049.245V11.1c0,1.8,7.315,1.82,7.627,1.82s7.627-.021,7.627-1.82V8.2C23.783,6.4,16.467,6.381,16.156,6.381Zm0,.737c3.965,0,6.354.606,6.817,1.01-.315.4-2.737,1.059-6.866,1.059-3.965,0-6.354-.606-6.818-1.01C9.606,7.776,12.027,7.118,16.156,7.118Zm6.889,3.973c-.191.4-2.632,1.1-6.889,1.1s-6.7-.7-6.889-1.1V9c1.9.916,6.593.929,6.841.929s5.11-.014,6.938-.978v2.145Z" transform="translate(-8.481 -6.381)"/><path class="a-master-data" d="M23.629,38.417a.368.368,0,0,0-.368.355c-.189.4-2.631,1.1-6.89,1.1s-6.7-.7-6.89-1.1a.368.368,0,0,0-.737.013v3.193c0,1.8,7.315,1.82,7.627,1.82S24,43.778,24,41.979V38.786A.369.369,0,0,0,23.629,38.417Zm-.369,3.549c-.191.4-2.632,1.1-6.889,1.1s-6.7-.7-6.889-1.1V39.653c1.865.939,6.639.953,6.889.953s5.025-.013,6.889-.953Z" transform="translate(-8.696 -32.514)"/><path class="a-master-data" d="M23.629,64.412a.368.368,0,0,0-.368.355c-.189.4-2.631,1.1-6.89,1.1s-6.7-.7-6.89-1.1a.368.368,0,0,0-.737.013v3.193c0,1.8,7.315,1.82,7.627,1.82S24,69.773,24,67.974V64.781A.369.369,0,0,0,23.629,64.412Zm-.369,3.549c-.191.4-2.632,1.1-6.889,1.1s-6.7-.7-6.889-1.1V65.648c1.865.939,6.639.953,6.889.953s5.025-.013,6.889-.953Z" transform="translate(-8.696 -53.718)"/></svg>