<svg id="password-hiden" xmlns="http://www.w3.org/2000/svg" width="30" height="30" viewBox="0 0 30 30">
  <g id="visibility_off_icon">
    <path id="Path_1305" data-name="Path 1305" d="M0,0H30V30H0ZM0,0H30V30H0ZM0,0H30V30H0ZM0,0H30V30H0Z" fill="none"/>
    <g id="Group_10296" data-name="Group 10296" transform="translate(2.039 3.542)">
      <g id="Group_10295" data-name="Group 10295" transform="translate(0 0.724)">
        <path id="Path_27701" data-name="Path 27701" d="M23.918,267l.4-1.012a3.816,3.816,0,0,0,5.059-4.64l1.043-.313a4.9,4.9,0,0,1-6.5,5.964Zm-9.092-4.62q-.218.237-.407.452.189.216.407.452a25.423,25.423,0,0,0,2.685,2.512,21.041,21.041,0,0,0,1.823,1.321l-.59.916a25.365,25.365,0,0,1-5.745-5.2s5.852-7.624,13.07-7.624a11.909,11.909,0,0,1,4.421.905l-.835.847a10.562,10.562,0,0,0-3.586-.663c-2.868,0-5.778,1.33-8.559,3.571A25.423,25.423,0,0,0,14.827,262.375Zm22.487.9q.218-.237.407-.452-.189-.216-.407-.452a25.424,25.424,0,0,0-2.685-2.512c-.415-.334-.838-.652-1.268-.95l.62-.9a25.476,25.476,0,0,1,5.159,4.809s-5.852,7.624-13.07,7.624a11.689,11.689,0,0,1-4.022-.753l.871-.852a10.33,10.33,0,0,0,3.151.515c2.868,0,5.778-1.33,8.559-3.571A25.424,25.424,0,0,0,37.314,263.279Zm-9.083-4.852-.481.977a3.815,3.815,0,0,0-5.161,4.982l-.994.445a4.9,4.9,0,0,1,6.635-6.4Zm7.334-5.7.77.77L16.517,273.313l-.77-.77Z" transform="translate(-13 -252.724)" fill="#41485a"/>
      </g>
    </g>
  </g>
</svg>
