<svg id="password-open" xmlns="http://www.w3.org/2000/svg" width="30" height="30" viewBox="0 0 30 30">
  <g id="visibility_off_icon">
    <path id="Path_1305" data-name="Path 1305" d="M0,0H30V30H0ZM0,0H30V30H0ZM0,0H30V30H0ZM0,0H30V30H0Z" fill="none"/>
    <g id="Group_10296" data-name="Group 10296" transform="translate(2.039 4.266)">
      <g id="Group_10295" data-name="Group 10295">
        <g id="Group_10294" data-name="Group 10294" transform="translate(0.07 2.543)">
          <g id="Group_10293" data-name="Group 10293">
            <path id="Path_27700" data-name="Path 27700" d="M752.249,211.153a25.425,25.425,0,0,0-2.678-2.5c-2.773-2.236-5.676-3.562-8.536-3.562s-5.763,1.326-8.536,3.562a25.425,25.425,0,0,0-2.678,2.5q-.217.236-.406.451.189.215.406.451a25.425,25.425,0,0,0,2.678,2.5c2.773,2.236,5.676,3.562,8.536,3.562s5.763-1.326,8.536-3.562a25.425,25.425,0,0,0,2.678-2.5q.217-.236.406-.451Q752.466,211.389,752.249,211.153Zm-11.214,8.055c-7.2,0-13.035-7.6-13.035-7.6s5.836-7.6,13.035-7.6,13.035,7.6,13.035,7.6S748.234,219.208,741.035,219.208Zm0-2.716a4.888,4.888,0,1,0-4.888-4.888A4.889,4.889,0,0,0,741.035,216.492Zm0-1.086a3.8,3.8,0,1,1,3.8-3.8A3.8,3.8,0,0,1,741.035,215.406Z" transform="translate(-728 -204)" fill="#41485a"/>
          </g>
        </g>
      </g>
    </g>
  </g>
</svg>
