<svg xmlns="http://www.w3.org/2000/svg" width="20" height="20" class="pending-icon" viewBox="0 0 20 20">
<defs><style>.pending-icon .a{fill:#f5f6f7;opacity:0;}.pending-icon .b{opacity:0.95;}.pending-icon .c{fill:#41485a;stroke:#41485a;stroke-miterlimit:10;stroke-width:0.2px;}</style></defs>
<rect class="a" width="20" height="20" rx="2"/><g class="b" transform="translate(6 3)"><path class="c" d="M111.789,13.053h-.211V11.174a2.278,2.278,0,0,0-.415-1.314l-2.172-3.1,2.173-3.123a2.305,2.305,0,0,0,.415-1.322V.421h.211a.211.211,0,0,0,0-.421h-7.579a.211.211,0,0,0,0,.421h.211V2.316a2.305,2.305,0,0,0,.415,1.322l2.173,3.123-2.172,3.1a2.278,2.278,0,0,0-.415,1.314v1.878h-.211a.211.211,0,1,0,0,.421h7.579a.211.211,0,1,0,0-.421Zm-6.947-1.878a1.859,1.859,0,0,1,.339-1.072l2.257-3.219a.211.211,0,0,0,0-.241L105.181,3.4a1.886,1.886,0,0,1-.339-1.082V.421h6.316V2.316a1.886,1.886,0,0,1-.339,1.082l-2.257,3.244a.211.211,0,0,0,0,.241l2.257,3.219a1.859,1.859,0,0,1,.339,1.072v1.878h-6.316Z" transform="translate(-104)"/></g></svg>