<svg xmlns="http://www.w3.org/2000/svg" class="questions-icon" width="28" height="28" viewBox="0 0 28 28">
<defs><style>.questions-icon .a{fill:#fff;stroke:#707070;opacity:0;}.questions-icon .b{fill:#acb5c0;}.questions-icon .c{stroke:none;}.questions-icon .d{fill:none;}</style></defs>
<g class="a"><rect class="c" width="28" height="28"/><rect class="d" x="0.5" y="0.5" width="27" height="27"/></g><g transform="translate(2.75 2.75)"><path class="b" d="M236.243,363.455a.787.787,0,1,1-.787-.787A.787.787,0,0,1,236.243,363.455Zm0,0" transform="translate(-223.645 -345.632)"/><path class="b" d="M11.81,23.621a11.81,11.81,0,1,1,11.81-11.81A11.824,11.824,0,0,1,11.81,23.621Zm0-22.145A10.334,10.334,0,1,0,22.145,11.81,10.346,10.346,0,0,0,11.81,1.476Zm0,0"/><path class="b" d="M168.678,93.8a.591.591,0,0,1-.591-.591v-.8a1.775,1.775,0,0,1,1.183-1.671,2.443,2.443,0,0,0,1.573-2.061,2.165,2.165,0,0,0-4.331,0,.591.591,0,1,1-1.181,0,3.346,3.346,0,1,1,6.693,0,3.623,3.623,0,0,1-2.361,3.176.591.591,0,0,0-.394.557v.795A.591.591,0,0,1,168.678,93.8Zm0,0" transform="translate(-156.868 -80.756)"/></g></svg>