<svg xmlns="http://www.w3.org/2000/svg" width="32" height="32" class="violet-arrow-btn" viewBox="0 0 32 32">
    <defs>
        <style>.violet-arrow-btn .a{fill:#716dff;}.violet-arrow-btn .b{fill:#fff;}</style>
    </defs>
    <g transform="translate(34.234 34) rotate(180)"><rect class="a" width="32" height="32" rx="2" transform="translate(2.234 2)"/><g transform="translate(22.429 11) rotate(90)"><path class="b" d="M.2.232h0a.631.631,0,0,0,0,.929L5.972,6.6a1.456,1.456,0,0,0,1.973,0l5.811-5.473A.631.631,0,0,0,13.764.2.729.729,0,0,0,12.77.192L7.453,5.2a.728.728,0,0,1-.987,0L1.19.232A.727.727,0,0,0,.2.232" transform="translate(0)"/></g></g>
</svg>