<svg xmlns="http://www.w3.org/2000/svg" class="search" width="25" height="25" viewBox="0 0 25 25">
<defs><style>.search .a{fill:none;stroke: none;}.search .b{fill:#acb5c0;}</style></defs>
<rect class="a" width="25" height="25"/><path class="b" d="M9.725,3A6.551,6.551,0,0,0,3,9.34a6.551,6.551,0,0,0,6.725,6.34,6.942,6.942,0,0,0,4.252-1.435l5.36,5.054a.7.7,0,0,0,.951,0,.609.609,0,0,0,0-.9l-5.36-5.054A6.091,6.091,0,0,0,16.45,9.34,6.551,6.551,0,0,0,9.725,3Zm0,1.268A5.223,5.223,0,0,1,15.1,9.34a5.223,5.223,0,0,1-5.38,5.072A5.223,5.223,0,0,1,4.345,9.34,5.223,5.223,0,0,1,9.725,4.268Z" transform="translate(0.751 1.138)"/></svg>