<svg xmlns="http://www.w3.org/2000/svg" width="23.202" height="20.072" viewBox="0 0 23.202 20.072"><defs><style>.a-send{fill:#acb5c0;}</style></defs><path class="a-send" d="M32.086,24.251,10.014,14.779a.563.563,0,0,0-.768.683l2.787,9.3-2.787,9.3a.593.593,0,0,0,.171.6.6.6,0,0,0,.37.142.669.669,0,0,0,.228-.057L32.086,25.3a.562.562,0,0,0,.341-.512A.6.6,0,0,0,32.086,24.251ZM10.7,33.21l2.361-7.879h7.111a.569.569,0,0,0,0-1.138H13.058L10.7,16.315l19.711,8.447Z" transform="translate(-9.225 -14.731)"/></svg>