<svg xmlns="http://www.w3.org/2000/svg" width="43" height="43" viewBox="0 0 43 43"><defs><style>.upload-big-icon-a,.upload-big-icon-b{fill:#acb5c0;stroke:#acb5c0;}.upload-big-icon-a{opacity:0;}.upload-big-icon-b{stroke-width:0.5px;}.upload-big-icon-c{stroke:none;}.upload-big-icon-d{fill:none;}</style></defs><g class="upload-big-icon-a"><rect class="upload-big-icon-c" width="43" height="43"/><rect class="upload-big-icon-d" x="0.5" y="0.5" width="42" height="42"/></g><g transform="translate(5.299 4.474)"><g transform="translate(0 0)"><path class="upload-big-icon-b" d="M49.978,319.4a.545.545,0,0,0-.545.545v9.851H21.093v-9.851a.545.545,0,0,0-1.09,0v10.4a.545.545,0,0,0,.545.545h29.43a.545.545,0,0,0,.545-.545v-10.4A.545.545,0,0,0,49.978,319.4Z" transform="translate(-20.003 -297.639)"/><path class="upload-big-icon-b" d="M132.812,8.029l.013-.013,6.156-6.155V27.25a.545.545,0,0,0,1.09,0V1.861l6.155,6.155A.545.545,0,0,0,147,7.245L139.912.16a.545.545,0,0,0-.771,0h0l-7.085,7.085a.545.545,0,1,0,.757.784Z" transform="translate(-124.266 0)"/></g></g></svg>