<?xml version="1.0" standalone="no"?>
<!DOCTYPE svg PUBLIC "-//W3C//DTD SVG 20010904//EN"
 "http://www.w3.org/TR/2001/REC-SVG-20010904/DTD/svg10.dtd">
<svg version="1.0" xmlns="http://www.w3.org/2000/svg"
 width="254.000000pt" height="71.000000pt" viewBox="0 0 254.000000 71.000000"
 preserveAspectRatio="xMidYMid meet">

<g transform="translate(0.000000,71.000000) scale(0.100000,-0.100000)"
fill="#000000" stroke="none">
<path style=" stroke:none;fill-rule:evenodd;fill:rgb(100%,100%,100%);fill-opacity:1;" d="M1332 578 c-86 -9 -107 -19 -132 -61 -16 -25 -20 -51 -20 -120 0
-101 15 -144 59 -170 39 -23 133 -23 172 0 79 47 77 184 -5 228 -25 13 -48 17
-99 13 -37 -2 -67 -1 -67 3 0 23 56 48 120 54 71 7 82 16 58 46 -11 12 -26 14
-86 7z m38 -187 c5 -11 10 -34 10 -51 0 -50 -16 -70 -55 -70 -39 0 -55 20 -55
70 0 50 16 70 55 70 24 0 38 -6 45 -19z"/>
<path style=" stroke:none;fill-rule:evenodd;fill:rgb(100%,100%,100%);fill-opacity:1;" d="M181 396 c-33 -91 -61 -170 -61 -176 0 -5 20 -10 44 -10 41 0 45 2
51 29 6 28 9 29 64 33 79 4 88 1 100 -33 9 -26 14 -29 55 -29 l45 0 -30 83
c-17 45 -45 123 -63 172 l-33 90 -55 3 -56 3 -61 -165z m138 14 c12 -30 21
-58 21 -62 0 -5 -21 -8 -46 -8 -33 0 -45 4 -42 13 3 6 13 36 23 65 9 29 18 52
20 50 2 -2 13 -28 24 -58z"/>
<path style=" stroke:none;fill-rule:evenodd;fill:rgb(100%,100%,100%);fill-opacity:1;" d="M560 385 c0 -79 -2 -86 -25 -101 -17 -11 -25 -25 -25 -45 0 -33 13
-36 65 -15 45 19 64 51 71 124 7 60 8 62 35 62 l29 0 0 -100 0 -100 40 0 40 0
0 130 0 130 -115 0 -115 0 0 -85z"/>
<path style=" stroke:none;fill-rule:evenodd;fill:rgb(100%,100%,100%);fill-opacity:1;" d="M887 463 c-4 -3 -7 -18 -7 -33 0 -27 1 -27 38 -17 47 12 112 2 112
-18 0 -11 -12 -15 -45 -15 -116 0 -173 -82 -105 -150 25 -25 96 -27 128 -4 20
14 22 14 22 0 0 -12 11 -16 45 -16 l45 0 0 90 c0 100 -11 135 -51 156 -29 14
-170 20 -182 7z m143 -151 c0 -30 -35 -55 -65 -48 -50 13 -25 66 32 66 25 0
33 -4 33 -18z"/>
<path style=" stroke:none;fill-rule:evenodd;fill:rgb(100%,100%,100%);fill-opacity:1;" d="M1504 454 c4 -10 30 -71 58 -135 28 -65 48 -125 45 -133 -4 -10 -18
-16 -37 -16 -27 0 -30 -3 -30 -30 0 -28 2 -30 39 -30 64 0 84 27 151 195 33
82 60 153 60 157 0 5 -18 8 -39 8 l-40 0 -28 -80 c-15 -44 -31 -80 -34 -80 -3
0 -20 35 -36 78 l-30 77 -43 3 c-37 3 -42 1 -36 -14z"/>
<path style=" stroke:none;fill-rule:evenodd;fill:rgb(100%,100%,100%);fill-opacity:1;" d="M1840 340 l0 -130 45 0 45 0 0 105 0 105 55 0 c52 0 55 1 55 25 l0
25 -100 0 -100 0 0 -130z"/>
<path style=" stroke:none;fill-rule:evenodd;fill:rgb(100%,100%,100%);fill-opacity:1;" d="M2107 463 c-4 -3 -7 -18 -7 -33 0 -26 0 -26 48 -17 55 12 97 4 106
-18 4 -12 -4 -15 -43 -15 -59 0 -108 -16 -121 -40 -18 -34 -12 -85 14 -109 29
-28 98 -31 125 -7 22 20 31 20 31 1 0 -11 11 -15 41 -15 l41 0 -4 106 c-3 102
-4 107 -31 130 -25 21 -38 24 -111 24 -45 0 -86 -3 -89 -7z m148 -155 c-14
-47 -66 -62 -88 -26 -17 26 9 48 55 48 36 0 39 -2 33 -22z"/>
</g>
</svg>
