<?xml version="1.0" encoding="UTF-8"?>
<svg xmlns="http://www.w3.org/2000/svg" xmlns:xlink="http://www.w3.org/1999/xlink" width="750px" height="90px" viewBox="0 0 750 90" version="1.1">
<g id="surface1">
<path style=" stroke:none;fill-rule:evenodd;fill:rgb(100%,100%,100%);fill-opacity:1;" d="M 244.785156 0.429688 L 261.621094 0.429688 L 261.621094 73.710938 L 244.785156 73.710938 Z M 244.785156 0.429688 "/>
<path style=" stroke:none;fill-rule:evenodd;fill:rgb(100%,100%,100%);fill-opacity:1;" d="M 179.082031 26.894531 C 179.082031 25.15625 177.460938 24.21875 175.585938 24.21875 C 173.75 24.21875 172.109375 25.136719 172.109375 26.894531 L 172.109375 62.1875 C 172.109375 63.945312 173.75 64.863281 175.585938 64.863281 C 177.460938 64.863281 179.082031 63.90625 179.082031 62.1875 L 179.082031 50.625 L 195.917969 50.625 L 195.917969 61.269531 C 195.917969 69.921875 186.679688 74.433594 175.507812 74.433594 C 164.882812 74.433594 155.273438 70.078125 155.273438 61.269531 L 155.273438 27.792969 C 155.273438 19.003906 164.882812 14.628906 175.507812 14.628906 C 186.464844 14.628906 195.917969 19.140625 195.917969 27.792969 L 195.917969 37.324219 L 179.082031 37.324219 Z M 179.082031 26.894531 "/>
<path style=" stroke:none;fill-rule:evenodd;fill:rgb(100%,100%,100%);fill-opacity:1;" d="M 216.855469 28.476562 C 216.855469 26.71875 218.496094 25.800781 220.332031 25.800781 C 222.207031 25.800781 223.828125 26.757812 223.828125 28.476562 L 223.828125 73.710938 L 240.664062 73.710938 L 240.664062 25.253906 C 240.664062 17.34375 233.710938 14.628906 228.417969 14.628906 C 222.460938 14.628906 218.28125 17.773438 217.148438 19.375 L 216.875 19.375 L 216.875 0.429688 L 200.039062 0.429688 L 200.039062 73.710938 L 216.855469 73.710938 Z M 216.855469 28.476562 "/>
<path style=" stroke:none;fill-rule:evenodd;fill:rgb(100%,100%,100%);fill-opacity:1;" d="M 289.550781 61.132812 C 289.550781 62.851562 287.929688 63.808594 286.074219 63.808594 C 284.238281 63.808594 282.558594 62.890625 282.558594 61.132812 L 282.558594 15.3125 L 265.722656 15.3125 L 265.722656 63.964844 C 265.722656 70.410156 271.777344 74.433594 278.261719 74.433594 C 284.84375 74.433594 288.417969 70.9375 289.433594 69.648438 L 289.804688 69.648438 L 290.097656 73.710938 L 306.386719 73.710938 L 306.386719 15.3125 L 289.550781 15.3125 Z M 289.550781 61.132812 "/>
<path style=" stroke:none;fill-rule:evenodd;fill:rgb(100%,100%,100%);fill-opacity:1;" d="M 327.324219 73.710938 L 310.488281 73.710938 L 310.488281 15.3125 L 327.167969 15.3125 L 327.324219 19.394531 L 327.675781 19.394531 C 328.90625 17.597656 332.890625 14.628906 338.964844 14.628906 C 345.253906 14.628906 349.296875 18.183594 350.15625 20.292969 L 350.390625 20.292969 C 351.640625 18.144531 356.054688 14.628906 362.421875 14.628906 C 368.867188 14.628906 375.058594 17.832031 375.058594 25.78125 L 375.058594 73.710938 L 358.222656 73.710938 L 358.222656 27.910156 C 358.222656 26.132812 356.5625 25.214844 354.707031 25.214844 C 352.832031 25.214844 351.210938 26.171875 351.210938 27.910156 L 351.210938 73.710938 L 334.296875 73.710938 L 334.296875 27.929688 C 334.296875 26.152344 332.617188 25.234375 330.761719 25.234375 C 328.90625 25.234375 327.324219 26.191406 327.324219 27.929688 Z M 327.324219 73.710938 "/>
<path style=" stroke:none;fill-rule:evenodd;fill:rgb(100%,100%,100%);fill-opacity:1;" d="M 407.089844 14.628906 C 401.464844 14.628906 397.402344 18.125 396.367188 19.414062 L 395.996094 19.414062 L 395.996094 0.429688 L 379.160156 0.429688 L 379.160156 73.710938 L 395.800781 73.710938 L 395.996094 69.648438 L 396.367188 69.648438 C 397.1875 71.210938 400.800781 74.414062 406.992188 74.414062 C 414.101562 74.414062 419.902344 69.902344 419.902344 63.066406 L 419.902344 25.253906 C 419.902344 18.671875 413.867188 14.628906 407.089844 14.628906 Z M 403.027344 61.152344 C 403.027344 62.871094 401.367188 63.828125 399.511719 63.828125 C 397.65625 63.828125 395.996094 62.910156 395.996094 61.152344 L 395.996094 27.929688 C 395.996094 26.171875 397.65625 25.253906 399.511719 25.253906 C 401.367188 25.253906 403.027344 26.210938 403.027344 27.929688 Z M 403.027344 61.152344 "/>
<path style=" stroke:none;fill-rule:evenodd;fill:rgb(100%,100%,100%);fill-opacity:1;" d="M 440.839844 62.207031 C 440.839844 63.964844 442.519531 64.882812 444.355469 64.882812 C 446.210938 64.882812 447.851562 63.945312 447.851562 62.207031 L 447.851562 50.625 L 464.648438 50.625 L 464.648438 61.269531 C 464.648438 70.078125 454.824219 74.433594 444.296875 74.433594 C 433.613281 74.433594 423.984375 70.078125 423.984375 61.269531 L 423.984375 27.8125 C 423.984375 19.023438 433.613281 14.628906 444.277344 14.628906 C 455.214844 14.628906 464.648438 19.121094 464.648438 27.8125 L 464.648438 46.679688 L 440.839844 46.679688 Z M 447.851562 37.773438 L 447.851562 26.894531 C 447.851562 25.175781 446.210938 24.21875 444.355469 24.21875 C 442.519531 24.21875 440.839844 25.136719 440.839844 26.894531 L 440.859375 37.773438 Z M 447.851562 37.773438 "/>
<path style=" stroke:none;fill-rule:evenodd;fill:rgb(100%,100%,100%);fill-opacity:1;" d="M 489.160156 25.253906 C 487.304688 25.253906 485.644531 26.171875 485.644531 27.929688 L 485.644531 73.710938 L 468.808594 73.710938 L 468.808594 15.3125 L 485.292969 15.3125 L 485.605469 19.375 L 485.976562 19.375 C 487.578125 17.753906 491.660156 14.628906 497.265625 14.628906 C 503.808594 14.628906 509.472656 18.515625 509.472656 24.6875 L 509.472656 46.621094 L 492.636719 46.621094 L 492.636719 27.539062 C 492.636719 26.152344 490.820312 25.253906 489.121094 25.253906 Z M 489.160156 25.253906 "/>
<path style=" stroke:none;fill-rule:evenodd;fill:rgb(100%,100%,100%);fill-opacity:1;" d="M 575.117188 62.207031 C 575.117188 63.964844 576.796875 64.882812 578.632812 64.882812 C 580.507812 64.882812 582.128906 63.945312 582.128906 62.207031 L 582.128906 50.625 L 598.964844 50.625 L 598.964844 61.269531 C 598.964844 70.078125 589.082031 74.433594 578.59375 74.433594 C 567.929688 74.433594 558.300781 70.078125 558.300781 61.269531 L 558.300781 27.8125 C 558.300781 19.023438 567.910156 14.628906 578.554688 14.628906 C 589.511719 14.628906 598.964844 19.121094 598.964844 27.8125 L 598.964844 46.679688 L 575.117188 46.679688 Z M 582.128906 37.773438 L 582.128906 26.894531 C 582.128906 25.175781 580.507812 24.21875 578.632812 24.21875 C 576.796875 24.21875 575.117188 25.136719 575.117188 26.894531 L 575.15625 37.773438 Z M 582.128906 37.773438 "/>
<path style=" stroke:none;fill-rule:evenodd;fill:rgb(100%,100%,100%);fill-opacity:1;" d="M 623.417969 25.253906 C 621.523438 25.253906 619.863281 26.171875 619.863281 27.929688 L 619.863281 73.710938 L 603.007812 73.710938 L 603.007812 15.3125 L 619.53125 15.3125 L 619.863281 19.375 L 620.214844 19.375 C 621.816406 17.753906 625.878906 14.628906 631.503906 14.628906 C 638.027344 14.628906 643.730469 18.515625 643.730469 24.6875 L 643.730469 46.621094 L 626.875 46.621094 L 626.875 27.539062 C 626.875 26.152344 625.039062 25.253906 623.359375 25.253906 Z M 623.417969 25.253906 "/>
<path style=" stroke:none;fill-rule:evenodd;fill:rgb(100%,100%,100%);fill-opacity:1;" d="M 537.382812 57.480469 C 537.382812 59.21875 535.761719 60.15625 533.886719 60.15625 C 532.050781 60.15625 530.371094 59.257812 530.371094 57.480469 L 530.371094 27.949219 C 530.371094 26.191406 532.050781 25.273438 533.886719 25.273438 C 535.761719 25.273438 537.382812 26.230469 537.382812 27.949219 Z M 537.382812 77.988281 C 537.382812 79.726562 535.761719 80.664062 533.886719 80.664062 C 532.050781 80.664062 530.371094 79.746094 530.371094 77.988281 L 530.371094 73.261719 L 513.574219 73.261719 L 513.574219 76.484375 C 513.574219 85.605469 522.148438 89.667969 533.847656 89.667969 C 545.449219 89.667969 554.21875 85.605469 554.21875 76.484375 L 554.21875 15.3125 L 537.617188 15.3125 L 537.382812 19.414062 L 536.992188 19.414062 C 536.113281 18.066406 532.167969 14.628906 525.878906 14.628906 C 519.804688 14.628906 513.574219 18.066406 513.574219 24.394531 L 513.574219 59.277344 C 513.574219 65.957031 519.414062 69.863281 525.976562 69.863281 C 532.226562 69.863281 535.839844 66.796875 536.875 65.566406 L 537.382812 65.566406 Z M 537.382812 77.988281 "/>
<path style=" stroke:none;fill-rule:evenodd;fill:rgb(100%,100%,100%);fill-opacity:1;" d="M 125.019531 61.269531 C 125.019531 63.027344 126.699219 63.945312 128.535156 63.945312 C 130.390625 63.945312 132.03125 62.988281 132.03125 61.269531 L 132.03125 54.335938 C 132.03125 48.808594 130.390625 46.816406 124.824219 42.949219 C 120.058594 39.667969 117.675781 37.96875 114.609375 35.839844 C 110.664062 33.105469 106.132812 29.296875 106.132812 22.1875 L 106.132812 13.398438 C 106.132812 3.769531 117.03125 0.175781 128.515625 0.175781 C 139.960938 0.175781 150.78125 3.847656 150.78125 13.339844 L 150.78125 24.648438 L 132.03125 24.648438 L 132.03125 13.671875 C 132.03125 11.953125 130.390625 10.996094 128.535156 10.996094 C 126.660156 10.996094 125.019531 11.914062 125.019531 13.671875 L 125.019531 18.945312 C 125.019531 23.515625 126.953125 25.527344 132.109375 29.140625 C 134.179688 30.585938 138.867188 33.945312 142.460938 36.542969 C 148.90625 41.171875 151.152344 45.371094 151.152344 51.132812 L 151.152344 60.957031 C 151.152344 71.152344 139.980469 74.726562 128.515625 74.726562 C 116.894531 74.726562 106.074219 71.152344 106.074219 61.425781 L 106.074219 47.382812 L 125.019531 47.382812 Z M 125.019531 61.269531 "/>
</g>
</svg>
