<?xml version="1.0" standalone="no"?>
<!DOCTYPE svg PUBLIC "-//W3C//DTD SVG 20010904//EN"
 "http://www.w3.org/TR/2001/REC-SVG-20010904/DTD/svg10.dtd">
<svg version="1.0" xmlns="http://www.w3.org/2000/svg"
 width="135.000000pt" height="48.000000pt" viewBox="0 0 135.000000 48.000000"
 preserveAspectRatio="xMidYMid meet">

<g transform="translate(0.000000,48.000000) scale(0.100000,-0.100000)"
fill="#000000" stroke="none">
<path style=" stroke:none;fill-rule:evenodd;fill:rgb(100%,100%,100%);fill-opacity:1;" d="M83 420 c-16 -6 -23 -18 -23 -36 0 -21 3 -25 18 -19 44 20 83 17 108
-6 13 -12 24 -26 24 -31 0 -4 -27 -8 -60 -8 -57 0 -60 -1 -60 -25 0 -23 4 -24
61 -27 l61 -3 -19 -24 c-20 -25 -57 -31 -105 -18 -25 7 -28 5 -28 -17 0 -13 7
-27 16 -30 32 -12 116 -6 145 11 58 35 75 127 34 189 -29 45 -115 67 -172 44z"/>
<path style=" stroke:none;fill-rule:evenodd;fill:rgb(100%,100%,100%);fill-opacity:1;" d="M370 345 c0 -72 -3 -88 -20 -105 -11 -11 -24 -20 -30 -20 -5 0 -10
-12 -10 -26 0 -24 2 -25 33 -19 56 12 74 30 86 85 6 28 11 67 11 85 0 31 3 35
25 35 l25 0 0 -105 0 -105 30 0 30 0 0 130 0 130 -90 0 -90 0 0 -85z"/>
<path style=" stroke:none;fill-rule:evenodd;fill:rgb(100%,100%,100%);fill-opacity:1;" d="M636 305 c-25 -70 -46 -129 -46 -131 0 -2 14 -4 30 -4 23 0 33 6 40
25 8 22 15 25 60 25 45 0 52 -3 60 -25 7 -19 17 -25 40 -25 16 0 30 3 30 8 0
4 -20 61 -44 127 l-44 120 -40 3 -39 3 -47 -126z m113 -22 c1 -8 -11 -13 -29
-13 -35 0 -36 4 -14 56 l17 39 13 -35 c7 -19 13 -41 13 -47z"/>
<path style=" stroke:none;fill-rule:evenodd;fill:rgb(100%,100%,100%);fill-opacity:1;" d="M890 300 l0 -130 35 0 c35 0 35 0 35 45 0 45 0 45 35 45 81 0 125 56
99 125 -11 28 -60 45 -134 45 l-70 0 0 -130z m135 45 c0 -27 -4 -30 -32 -33
-32 -3 -33 -2 -33 33 0 35 1 36 33 33 28 -3 32 -6 32 -33z"/>
</g>
</svg>
