<?xml version="1.0" standalone="no"?>
<!DOCTYPE svg PUBLIC "-//W3C//DTD SVG 20010904//EN"
 "http://www.w3.org/TR/2001/REC-SVG-20010904/DTD/svg10.dtd">
<svg version="1.0" xmlns="http://www.w3.org/2000/svg"
 width="112.000000pt" height="31.000000pt" viewBox="0 0 112.000000 31.000000"
 preserveAspectRatio="xMidYMid meet">

<g transform="translate(0.000000,31.000000) scale(0.100000,-0.100000)"
fill="#000000" stroke="none">
<path style=" stroke:none;fill-rule:evenodd;fill:rgb(100%,100%,100%);fill-opacity:1;" d="M555 263 c-36 -9 -45 -24 -45 -79 0 -43 4 -56 22 -68 48 -34 99 -11
100 43 1 41 -25 64 -65 58 -17 -2 -26 1 -24 7 2 6 18 13 36 16 17 3 33 10 34
15 2 11 -28 16 -58 8z m39 -88 c8 -21 -3 -45 -20 -45 -18 0 -28 24 -20 45 3 8
12 15 20 15 7 0 16 -7 20 -15z"/>
<path style=" stroke:none;fill-rule:evenodd;fill:rgb(100%,100%,100%);fill-opacity:1;" d="M89 233 c-6 -16 -19 -52 -30 -80 -18 -52 -18 -53 2 -53 11 0 22 7 25
15 8 20 63 20 70 0 7 -18 48 -21 42 -2 -3 6 -16 42 -29 80 -20 56 -27 67 -47
67 -15 0 -26 -9 -33 -27z m47 -70 c-2 -3 -11 -3 -19 -1 -11 2 -12 9 -5 28 l10
25 9 -24 c5 -13 7 -26 5 -28z"/>
<path style=" stroke:none;fill-rule:evenodd;fill:rgb(100%,100%,100%);fill-opacity:1;" d="M240 183 c0 -20 -7 -45 -17 -55 -21 -23 -10 -34 21 -20 16 7 26 22
30 46 10 51 26 45 26 -9 0 -38 3 -45 20 -45 18 0 20 7 20 60 l0 60 -50 0 -50
0 0 -37z"/>
<path style=" stroke:none;fill-rule:evenodd;fill:rgb(100%,100%,100%);fill-opacity:1;" d="M377 213 c-15 -14 -6 -25 17 -21 14 3 31 1 38 -3 9 -6 4 -9 -14 -9
-37 0 -59 -24 -49 -53 7 -18 17 -22 60 -24 l51 -2 0 49 c0 39 -4 52 -19 60
-22 11 -74 14 -84 3z m63 -67 c0 -17 -27 -29 -35 -16 -4 6 -3 15 0 20 9 15 35
12 35 -4z"/>
<path style=" stroke:none;fill-rule:evenodd;fill:rgb(100%,100%,100%);fill-opacity:1;" d="M656 198 c3 -13 13 -35 20 -50 18 -35 18 -54 -1 -62 -26 -9 -16 -28
12 -24 24 3 32 13 55 68 32 77 34 93 11 88 -9 -2 -22 -19 -28 -38 l-12 -35
-16 38 c-18 41 -54 54 -41 15z"/>
<path style=" stroke:none;fill-rule:evenodd;fill:rgb(100%,100%,100%);fill-opacity:1;" d="M800 160 c0 -46 3 -60 14 -60 11 0 16 14 18 47 2 39 7 49 23 51 43 8
38 22 -8 22 l-47 0 0 -60z"/>
<path style=" stroke:none;fill-rule:evenodd;fill:rgb(100%,100%,100%);fill-opacity:1;" d="M917 213 c-15 -15 -5 -23 31 -24 l37 -2 -34 -6 c-41 -7 -61 -33 -45
-58 8 -13 26 -19 62 -20 l50 -2 -2 44 c-1 24 -8 50 -15 59 -13 16 -71 22 -84
9z m63 -62 c0 -5 -6 -14 -14 -20 -16 -13 -32 2 -21 19 8 12 35 13 35 1z"/>
</g>
</svg>
